<?xml version="1.0" encoding="utf-8"?>
<!-- Generator: Adobe Illustrator 27.7.0, SVG Export Plug-In . SVG Version: 6.00 Build 0)  -->
<svg version="1.1" id="Layer_1" xmlns="http://www.w3.org/2000/svg" xmlns:xlink="http://www.w3.org/1999/xlink" x="0px" y="0px"
	 viewBox="0 0 812.79 227.93" style="enable-background:new 0 0 812.79 227.93;" xml:space="preserve">
<style type="text/css">
	.st0{fill:#FFFFFF;}
	.st1{fill:#FCCE0F;}
	.st2{fill:#FCCE0D;}
	.st3{fill:#010101;}
	.st4{fill:#221F1F;}
</style>
<g>
	<path d="M32.21,181.98v4.91H19.57v7.77h9.68v4.82h-9.68v12.81h-6.08v-30.31H32.21z"/>
	<path d="M58.78,188.24v24.06h-6.12v-3.04c-0.78,1.04-1.8,1.86-3.06,2.45c-1.26,0.59-2.63,0.89-4.1,0.89c-1.88,0-3.55-0.4-4.99-1.19
		s-2.58-1.97-3.41-3.52c-0.82-1.55-1.24-3.39-1.24-5.54v-14.11h6.08v13.24c0,1.91,0.48,3.38,1.43,4.41
		c0.96,1.03,2.26,1.54,3.91,1.54c1.68,0,3-0.51,3.95-1.54c0.96-1.03,1.43-2.5,1.43-4.41v-13.24H58.78z"/>
	<path d="M71.41,193.23v11.64c0,0.81,0.2,1.4,0.59,1.76c0.39,0.36,1.05,0.54,1.98,0.54h2.82v5.12h-3.82c-5.12,0-7.69-2.49-7.69-7.47
		v-11.59h-2.87v-4.99h2.87v-5.95h6.12v5.95h5.39v4.99H71.41z"/>
	<path d="M103.46,188.24v24.06h-6.12v-3.04c-0.78,1.04-1.8,1.86-3.06,2.45c-1.26,0.59-2.63,0.89-4.1,0.89
		c-1.88,0-3.55-0.4-4.99-1.19c-1.45-0.8-2.58-1.97-3.41-3.52c-0.82-1.55-1.24-3.39-1.24-5.54v-14.11h6.08v13.24
		c0,1.91,0.48,3.38,1.43,4.41c0.96,1.03,2.26,1.54,3.91,1.54c1.68,0,3-0.51,3.95-1.54c0.96-1.03,1.43-2.5,1.43-4.41v-13.24H103.46z"
		/>
	<path d="M118.16,188.98c1.26-0.72,2.7-1.09,4.32-1.09v6.38h-1.61c-1.91,0-3.35,0.45-4.32,1.35c-0.97,0.9-1.46,2.46-1.46,4.69v11.98
		h-6.08v-24.06h6.08v3.74C115.88,190.7,116.9,189.7,118.16,188.98z"/>
	<path d="M148.31,202.09h-17.58c0.14,1.74,0.75,3.1,1.82,4.08c1.07,0.98,2.39,1.48,3.95,1.48c2.26,0,3.86-0.97,4.82-2.91h6.56
		c-0.7,2.32-2.03,4.22-4,5.71c-1.97,1.49-4.39,2.24-7.25,2.24c-2.32,0-4.39-0.51-6.23-1.54c-1.84-1.03-3.27-2.48-4.3-4.36
		c-1.03-1.88-1.54-4.05-1.54-6.51c0-2.49,0.51-4.67,1.52-6.56c1.01-1.88,2.43-3.33,4.26-4.34c1.82-1.01,3.92-1.52,6.3-1.52
		c2.29,0,4.33,0.49,6.14,1.48c1.81,0.98,3.21,2.38,4.21,4.19c1,1.81,1.5,3.89,1.5,6.23C148.49,200.61,148.43,201.39,148.31,202.09z
		 M142.19,198.01c-0.03-1.56-0.59-2.81-1.69-3.75c-1.1-0.94-2.45-1.41-4.04-1.41c-1.5,0-2.77,0.46-3.8,1.37
		c-1.03,0.91-1.66,2.18-1.89,3.8H142.19z"/>
	<path d="M170.98,194.23v5.13h-18.41v-5.13H170.98z"/>
	<path d="M186.68,188.95c1.38-0.74,2.95-1.11,4.71-1.11c2.06,0,3.92,0.51,5.58,1.52c1.66,1.01,2.98,2.45,3.95,4.32
		c0.97,1.87,1.45,4.03,1.45,6.49c0,2.46-0.49,4.64-1.45,6.53c-0.97,1.9-2.29,3.37-3.95,4.41c-1.66,1.04-3.52,1.56-5.58,1.56
		c-1.77,0-3.32-0.36-4.67-1.09c-1.35-0.72-2.44-1.64-3.28-2.74v14.89h-6.08v-35.52h6.08v3.47
		C184.22,190.61,185.3,189.69,186.68,188.95z M195.27,196.42c-0.59-1.06-1.38-1.86-2.35-2.41c-0.97-0.55-2.02-0.83-3.15-0.83
		c-1.1,0-2.14,0.28-3.11,0.85c-0.97,0.56-1.75,1.38-2.34,2.45c-0.59,1.07-0.89,2.33-0.89,3.78s0.3,2.71,0.89,3.78
		c0.59,1.07,1.37,1.89,2.34,2.45c0.97,0.56,2,0.85,3.11,0.85c1.13,0,2.18-0.29,3.15-0.87s1.75-1.4,2.35-2.47
		c0.59-1.07,0.89-2.35,0.89-3.82C196.16,198.73,195.87,197.48,195.27,196.42z"/>
	<path d="M215.51,188.98c1.26-0.72,2.7-1.09,4.32-1.09v6.38h-1.61c-1.91,0-3.35,0.45-4.32,1.35c-0.97,0.9-1.46,2.46-1.46,4.69v11.98
		h-6.08v-24.06h6.08v3.74C213.23,190.7,214.25,189.7,215.51,188.98z"/>
	<path d="M227.9,211.14c-1.85-1.03-3.31-2.48-4.36-4.36c-1.06-1.88-1.58-4.05-1.58-6.51c0-2.46,0.54-4.63,1.63-6.51
		c1.09-1.88,2.57-3.34,4.45-4.36c1.88-1.03,3.98-1.54,6.3-1.54c2.32,0,4.41,0.52,6.3,1.54c1.88,1.03,3.37,2.48,4.45,4.36
		c1.09,1.88,1.63,4.05,1.63,6.51c0,2.46-0.56,4.63-1.67,6.51c-1.11,1.88-2.62,3.34-4.52,4.36c-1.9,1.03-4.02,1.54-6.36,1.54
		C231.84,212.68,229.76,212.17,227.9,211.14z M237.26,206.58c0.97-0.53,1.74-1.34,2.32-2.41c0.58-1.07,0.87-2.37,0.87-3.91
		c0-2.29-0.6-4.04-1.8-5.28c-1.2-1.23-2.67-1.84-4.41-1.84c-1.74,0-3.19,0.61-4.36,1.84c-1.17,1.23-1.76,2.99-1.76,5.28
		c0,2.29,0.57,4.05,1.72,5.28c1.14,1.23,2.58,1.85,4.32,1.85C235.26,207.39,236.29,207.12,237.26,206.58z"/>
	<path d="M255.17,211.14c-1.85-1.03-3.31-2.48-4.36-4.36c-1.06-1.88-1.58-4.05-1.58-6.51c0-2.46,0.54-4.63,1.63-6.51
		c1.09-1.88,2.57-3.34,4.45-4.36c1.88-1.03,3.98-1.54,6.3-1.54c2.32,0,4.41,0.52,6.3,1.54s3.37,2.48,4.45,4.36
		c1.09,1.88,1.63,4.05,1.63,6.51c0,2.46-0.56,4.63-1.67,6.51c-1.11,1.88-2.62,3.34-4.52,4.36c-1.9,1.03-4.02,1.54-6.36,1.54
		C259.11,212.68,257.03,212.17,255.17,211.14z M264.53,206.58c0.97-0.53,1.74-1.34,2.32-2.41s0.87-2.37,0.87-3.91
		c0-2.29-0.6-4.04-1.8-5.28c-1.2-1.23-2.67-1.84-4.41-1.84c-1.74,0-3.19,0.61-4.36,1.84c-1.17,1.23-1.76,2.99-1.76,5.28
		c0,2.29,0.57,4.05,1.72,5.28c1.14,1.23,2.58,1.85,4.32,1.85C262.52,207.39,263.56,207.12,264.53,206.58z"/>
	<path d="M289.04,193.23h-4.21v19.06h-6.17v-19.06h-2.73v-4.99h2.73v-1.22c0-2.95,0.84-5.12,2.52-6.51c1.68-1.39,4.21-2.04,7.6-1.95
		v5.12c-1.48-0.03-2.5,0.22-3.08,0.74c-0.58,0.52-0.87,1.46-0.87,2.82v1h4.21V193.23z"/>
	<path d="M292.97,184.35c-0.71-0.68-1.06-1.53-1.06-2.54c0-1.01,0.35-1.86,1.06-2.54c0.71-0.68,1.6-1.02,2.67-1.02
		c1.07,0,1.96,0.34,2.67,1.02c0.71,0.68,1.06,1.53,1.06,2.54c0,1.01-0.35,1.86-1.06,2.54c-0.71,0.68-1.6,1.02-2.67,1.02
		C294.57,185.37,293.68,185.03,292.97,184.35z M298.64,188.24v24.06h-6.08v-24.06H298.64z"/>
	<path d="M324.47,190.6c1.76,1.81,2.65,4.34,2.65,7.58v14.11h-6.08V199c0-1.91-0.48-3.38-1.43-4.41c-0.96-1.03-2.26-1.54-3.91-1.54
		c-1.68,0-3,0.52-3.97,1.54c-0.97,1.03-1.46,2.5-1.46,4.41v13.29h-6.08v-24.06h6.08v3c0.81-1.04,1.85-1.86,3.11-2.45
		s2.64-0.89,4.15-0.89C320.39,187.89,322.71,188.79,324.47,190.6z"/>
	<path d="M346.62,188.91c1.36,0.71,2.43,1.63,3.21,2.76v-3.43h6.12v24.23c0,2.23-0.45,4.22-1.35,5.97c-0.9,1.75-2.24,3.14-4.04,4.17
		c-1.79,1.03-3.97,1.54-6.51,1.54c-3.41,0-6.22-0.8-8.4-2.39c-2.19-1.59-3.42-3.76-3.71-6.51h6.04c0.32,1.1,1.01,1.98,2.06,2.63
		s2.34,0.98,3.84,0.98c1.77,0,3.2-0.53,4.3-1.58c1.1-1.06,1.65-2.66,1.65-4.8v-3.73c-0.78,1.13-1.86,2.07-3.23,2.82
		c-1.38,0.75-2.95,1.13-4.71,1.13c-2.03,0-3.88-0.52-5.56-1.56s-3-2.51-3.97-4.41c-0.97-1.9-1.46-4.07-1.46-6.53
		c0-2.43,0.48-4.59,1.46-6.47c0.97-1.88,2.29-3.33,3.95-4.34c1.66-1.01,3.52-1.52,5.58-1.52
		C343.68,187.85,345.26,188.2,346.62,188.91z M348.96,196.47c-0.58-1.06-1.36-1.87-2.35-2.43c-0.98-0.56-2.04-0.85-3.17-0.85
		c-1.13,0-2.17,0.28-3.13,0.83c-0.96,0.55-1.73,1.35-2.32,2.41c-0.59,1.06-0.89,2.31-0.89,3.76s0.3,2.71,0.89,3.8
		s1.38,1.92,2.35,2.5s2,0.87,3.11,0.87c1.13,0,2.18-0.28,3.17-0.85c0.98-0.56,1.77-1.37,2.35-2.43c0.58-1.06,0.87-2.32,0.87-3.8
		C349.83,198.79,349.54,197.52,348.96,196.47z"/>
	<path d="M378.44,193.23v11.64c0,0.81,0.2,1.4,0.59,1.76c0.39,0.36,1.05,0.54,1.98,0.54h2.82v5.12h-3.82
		c-5.12,0-7.69-2.49-7.69-7.47v-11.59h-2.87v-4.99h2.87v-5.95h6.12v5.95h5.39v4.99H378.44z"/>
	<path d="M406.19,189.08c1.42,0.8,2.52,1.97,3.32,3.52c0.8,1.55,1.2,3.41,1.2,5.58v14.11h-6.08V199c0-1.91-0.48-3.38-1.43-4.41
		c-0.96-1.03-2.26-1.54-3.91-1.54c-1.68,0-3,0.52-3.97,1.54c-0.97,1.03-1.46,2.5-1.46,4.41v13.29h-6.08v-32.13h6.08v11.07
		c0.78-1.04,1.83-1.86,3.13-2.45c1.3-0.59,2.75-0.89,4.34-0.89C403.15,187.89,404.77,188.29,406.19,189.08z"/>
	<path d="M438.23,202.09h-17.58c0.14,1.74,0.75,3.1,1.82,4.08c1.07,0.98,2.39,1.48,3.95,1.48c2.26,0,3.86-0.97,4.82-2.91h6.56
		c-0.7,2.32-2.03,4.22-4,5.71c-1.97,1.49-4.39,2.24-7.25,2.24c-2.32,0-4.39-0.51-6.23-1.54c-1.84-1.03-3.27-2.48-4.3-4.36
		c-1.03-1.88-1.54-4.05-1.54-6.51c0-2.49,0.51-4.67,1.52-6.56c1.01-1.88,2.43-3.33,4.26-4.34c1.82-1.01,3.92-1.52,6.3-1.52
		c2.29,0,4.33,0.49,6.14,1.48c1.81,0.98,3.21,2.38,4.21,4.19c1,1.81,1.5,3.89,1.5,6.23C438.41,200.61,438.35,201.39,438.23,202.09z
		 M432.11,198.01c-0.03-1.56-0.59-2.81-1.69-3.75c-1.1-0.94-2.45-1.41-4.04-1.41c-1.5,0-2.77,0.46-3.8,1.37
		c-1.03,0.91-1.66,2.18-1.89,3.8H432.11z"/>
	<path d="M478.23,212.29h-6.08l-13.76-20.8v20.8h-6.08v-30.35h6.08l13.76,20.84v-20.84h6.08V212.29z"/>
	<path d="M505.97,202.09h-17.58c0.14,1.74,0.75,3.1,1.82,4.08c1.07,0.98,2.39,1.48,3.95,1.48c2.26,0,3.86-0.97,4.82-2.91h6.56
		c-0.7,2.32-2.03,4.22-4,5.71c-1.97,1.49-4.39,2.24-7.25,2.24c-2.32,0-4.39-0.51-6.23-1.54c-1.84-1.03-3.27-2.48-4.3-4.36
		c-1.03-1.88-1.54-4.05-1.54-6.51c0-2.49,0.51-4.67,1.52-6.56c1.01-1.88,2.43-3.33,4.26-4.34c1.82-1.01,3.92-1.52,6.3-1.52
		c2.29,0,4.33,0.49,6.14,1.48c1.81,0.98,3.21,2.38,4.21,4.19c1,1.81,1.5,3.89,1.5,6.23C506.15,200.61,506.09,201.39,505.97,202.09z
		 M499.85,198.01c-0.03-1.56-0.59-2.81-1.69-3.75c-1.1-0.94-2.45-1.41-4.04-1.41c-1.5,0-2.77,0.46-3.8,1.37
		c-1.03,0.91-1.66,2.18-1.89,3.8H499.85z"/>
	<path d="M523.43,212.29l-4.95-7.47l-4.39,7.47h-6.51l7.86-12.07l-7.95-11.99h6.86l4.91,7.43l4.43-7.43h6.51l-7.9,11.99l7.99,12.07
		H523.43z"/>
	<path d="M540.23,193.23v11.64c0,0.81,0.2,1.4,0.59,1.76c0.39,0.36,1.05,0.54,1.98,0.54h2.82v5.12h-3.82
		c-5.12,0-7.69-2.49-7.69-7.47v-11.59h-2.87v-4.99h2.87v-5.95h6.12v5.95h5.39v4.99H540.23z"/>
	<path d="M580.57,191.1c-0.69-1.27-1.65-2.24-2.87-2.91c-1.22-0.67-2.63-1-4.26-1c-1.8,0-3.39,0.41-4.78,1.22
		c-1.39,0.81-2.47,1.97-3.26,3.48c-0.78,1.5-1.17,3.24-1.17,5.21c0,2.03,0.4,3.79,1.19,5.3c0.8,1.51,1.9,2.66,3.32,3.47
		c1.42,0.81,3.07,1.22,4.95,1.22c2.32,0,4.21-0.61,5.69-1.85c1.48-1.23,2.45-2.95,2.91-5.14h-10.42v-4.65h16.41v5.3
		c-0.41,2.11-1.28,4.07-2.61,5.86c-1.33,1.79-3.05,3.23-5.14,4.32c-2.1,1.08-4.45,1.63-7.06,1.63c-2.92,0-5.57-0.66-7.92-1.98
		c-2.36-1.32-4.21-3.15-5.56-5.49c-1.35-2.34-2.02-5.01-2.02-7.99c0-2.98,0.67-5.65,2.02-8.01c1.35-2.36,3.2-4.2,5.56-5.51
		c2.36-1.32,4.99-1.98,7.88-1.98c3.41,0,6.38,0.83,8.9,2.5c2.52,1.67,4.26,4,5.21,7.01H580.57z"/>
	<path d="M614.57,202.09h-17.58c0.14,1.74,0.75,3.1,1.82,4.08c1.07,0.98,2.39,1.48,3.95,1.48c2.26,0,3.86-0.97,4.82-2.91h6.56
		c-0.7,2.32-2.03,4.22-4,5.71c-1.97,1.49-4.39,2.24-7.25,2.24c-2.32,0-4.39-0.51-6.23-1.54c-1.84-1.03-3.27-2.48-4.3-4.36
		c-1.03-1.88-1.54-4.05-1.54-6.51c0-2.49,0.51-4.67,1.52-6.56c1.01-1.88,2.43-3.33,4.26-4.34c1.82-1.01,3.92-1.52,6.3-1.52
		c2.29,0,4.33,0.49,6.14,1.48c1.81,0.98,3.21,2.38,4.21,4.19c1,1.81,1.5,3.89,1.5,6.23C614.74,200.61,614.68,201.39,614.57,202.09z
		 M608.45,198.01c-0.03-1.56-0.59-2.81-1.69-3.75c-1.1-0.94-2.45-1.41-4.04-1.41c-1.5,0-2.77,0.46-3.8,1.37
		c-1.03,0.91-1.66,2.18-1.89,3.8H608.45z"/>
	<path d="M639.01,190.6c1.76,1.81,2.65,4.34,2.65,7.58v14.11h-6.08V199c0-1.91-0.48-3.38-1.43-4.41c-0.96-1.03-2.26-1.54-3.91-1.54
		c-1.68,0-3,0.52-3.97,1.54c-0.97,1.03-1.46,2.5-1.46,4.41v13.29h-6.08v-24.06h6.08v3c0.81-1.04,1.85-1.86,3.11-2.45
		s2.64-0.89,4.15-0.89C634.93,187.89,637.25,188.79,639.01,190.6z"/>
	<path d="M669.19,202.09h-17.58c0.14,1.74,0.75,3.1,1.82,4.08c1.07,0.98,2.39,1.48,3.95,1.48c2.26,0,3.86-0.97,4.82-2.91h6.56
		c-0.7,2.32-2.03,4.22-4,5.71c-1.97,1.49-4.39,2.24-7.25,2.24c-2.32,0-4.39-0.51-6.23-1.54c-1.84-1.03-3.27-2.48-4.3-4.36
		c-1.03-1.88-1.54-4.05-1.54-6.51c0-2.49,0.51-4.67,1.52-6.56c1.01-1.88,2.43-3.33,4.26-4.34c1.82-1.01,3.92-1.52,6.3-1.52
		c2.29,0,4.33,0.49,6.14,1.48c1.81,0.98,3.21,2.38,4.21,4.19c1,1.81,1.5,3.89,1.5,6.23C669.37,200.61,669.31,201.39,669.19,202.09z
		 M663.07,198.01c-0.03-1.56-0.59-2.81-1.69-3.75c-1.1-0.94-2.45-1.41-4.04-1.41c-1.5,0-2.77,0.46-3.8,1.37
		c-1.03,0.91-1.66,2.18-1.89,3.8H663.07z"/>
	<path d="M682.5,188.98c1.26-0.72,2.7-1.09,4.32-1.09v6.38h-1.61c-1.91,0-3.35,0.45-4.32,1.35c-0.97,0.9-1.46,2.46-1.46,4.69v11.98
		h-6.08v-24.06h6.08v3.74C680.22,190.7,681.24,189.7,682.5,188.98z"/>
	<path d="M690.36,193.71c0.97-1.88,2.29-3.33,3.95-4.34c1.66-1.01,3.52-1.52,5.58-1.52c1.79,0,3.37,0.36,4.71,1.09
		c1.35,0.72,2.42,1.64,3.23,2.74v-3.43h6.12v24.06h-6.12v-3.52c-0.78,1.13-1.86,2.06-3.23,2.8c-1.38,0.74-2.96,1.11-4.76,1.11
		c-2.03,0-3.87-0.52-5.54-1.56s-2.98-2.51-3.95-4.41c-0.97-1.9-1.46-4.07-1.46-6.53C688.9,197.75,689.39,195.59,690.36,193.71z
		 M706.97,196.47c-0.58-1.06-1.36-1.87-2.35-2.43c-0.98-0.56-2.04-0.85-3.17-0.85c-1.13,0-2.17,0.28-3.13,0.83
		c-0.96,0.55-1.73,1.35-2.32,2.41c-0.59,1.06-0.89,2.31-0.89,3.76s0.3,2.71,0.89,3.8c0.59,1.09,1.38,1.92,2.35,2.5
		c0.97,0.58,2,0.87,3.11,0.87c1.13,0,2.18-0.28,3.17-0.85c0.98-0.56,1.77-1.37,2.35-2.43c0.58-1.06,0.87-2.32,0.87-3.8
		C707.84,198.79,707.55,197.52,706.97,196.47z"/>
	<path d="M726.55,193.23v11.64c0,0.81,0.2,1.4,0.59,1.76c0.39,0.36,1.05,0.54,1.98,0.54h2.82v5.12h-3.82
		c-5.12,0-7.69-2.49-7.69-7.47v-11.59h-2.87v-4.99h2.87v-5.95h6.12v5.95h5.39v4.99H726.55z"/>
	<path d="M736.3,184.35c-0.71-0.68-1.06-1.53-1.06-2.54c0-1.01,0.35-1.86,1.06-2.54c0.71-0.68,1.6-1.02,2.67-1.02
		s1.96,0.34,2.67,1.02c0.71,0.68,1.06,1.53,1.06,2.54c0,1.01-0.35,1.86-1.06,2.54c-0.71,0.68-1.6,1.02-2.67,1.02
		S737.01,185.03,736.3,184.35z M741.97,188.24v24.06h-6.08v-24.06H741.97z"/>
	<path d="M751.95,211.14c-1.85-1.03-3.31-2.48-4.36-4.36c-1.06-1.88-1.58-4.05-1.58-6.51c0-2.46,0.54-4.63,1.63-6.51
		c1.09-1.88,2.57-3.34,4.45-4.36c1.88-1.03,3.98-1.54,6.3-1.54c2.32,0,4.41,0.52,6.3,1.54c1.88,1.03,3.37,2.48,4.45,4.36
		c1.09,1.88,1.63,4.05,1.63,6.51c0,2.46-0.56,4.63-1.67,6.51c-1.11,1.88-2.62,3.34-4.52,4.36c-1.9,1.03-4.02,1.54-6.36,1.54
		C755.89,212.68,753.8,212.17,751.95,211.14z M761.31,206.58c0.97-0.53,1.74-1.34,2.32-2.41s0.87-2.37,0.87-3.91
		c0-2.29-0.6-4.04-1.8-5.28c-1.2-1.23-2.67-1.84-4.41-1.84s-3.19,0.61-4.36,1.84c-1.17,1.23-1.76,2.99-1.76,5.28
		c0,2.29,0.57,4.05,1.72,5.28c1.14,1.23,2.58,1.85,4.32,1.85C759.3,207.39,760.34,207.12,761.31,206.58z"/>
	<path d="M795.07,190.6c1.76,1.81,2.65,4.34,2.65,7.58v14.11h-6.08V199c0-1.91-0.48-3.38-1.43-4.41c-0.96-1.03-2.26-1.54-3.91-1.54
		c-1.68,0-3,0.52-3.97,1.54c-0.97,1.03-1.46,2.5-1.46,4.41v13.29h-6.08v-24.06h6.08v3c0.81-1.04,1.85-1.86,3.11-2.45
		s2.64-0.89,4.15-0.89C790.99,187.89,793.3,188.79,795.07,190.6z"/>
</g>
<g>
	<g>
		<path class="st3" d="M15.3,69.98h16.66l23.26,54.38l23.26-54.38h16.56v73.14H80.37V95.54l-19.59,47.57H49.67l-19.7-47.57v47.57
			H15.3V69.98z"/>
		<path class="st3" d="M96,144.07H79.41v-43.68l-17.99,43.68H49.03l-18.1-43.7v43.7H14.34V69.02H32.6l22.63,52.9l22.63-52.9H96
			V144.07z M81.33,142.15h12.75V70.94H79.12L55.22,126.8L31.33,70.94H16.26v71.22h12.75V90.72l21.3,51.44h9.82l21.2-51.46V142.15z"
			/>
	</g>
	<g>
		<path class="st3" d="M336.08,69.87v73.24h-14.67L288.2,92.92v50.19h-14.67V69.87h14.67l33.22,50.29V69.87H336.08z"/>
		<path class="st3" d="M337.04,144.07H320.9l-31.74-47.96v47.96h-16.59V68.91h16.15l31.74,48.06V68.91h16.59V144.07z M321.93,142.15
			h13.19V70.83h-12.75v52.53l-34.69-52.53h-13.19v71.32h12.75V89.74L321.93,142.15z"/>
	</g>
	<g>
		<path class="st3" d="M377.47,115.03h-12.26v28.08h-14.67V69.98h26.93c17.6,0,26.4,9.95,26.4,22.63
			C403.87,103.72,396.33,115.03,377.47,115.03z M376.84,103.19c8.28,0,11.94-4.09,11.94-10.58c0-6.71-3.67-10.69-11.94-10.69h-11.63
			v21.27H376.84z"/>
		<path class="st3" d="M366.17,144.07h-16.59V69.02h27.89c16.88,0,27.36,9.04,27.36,23.59c0,10.79-7.17,23.38-27.36,23.38h-11.3
			V144.07z M351.5,142.15h12.75v-28.08h13.22c18.78,0,25.44-11.56,25.44-21.46c0-13.37-9.75-21.67-25.44-21.67H351.5V142.15z
			 M376.84,104.15h-12.59V80.96h12.59c10.67,0,12.9,6.33,12.9,11.65C389.74,100.05,385.16,104.15,376.84,104.15z M366.17,102.23
			h10.67c7.29,0,10.98-3.24,10.98-9.62c0-6.55-3.59-9.73-10.98-9.73h-10.67V102.23z"/>
	</g>
	<g>
		<path class="st3" d="M441.7,69.98c17.6,0,26.4,10.16,26.4,22.42c0,8.91-4.92,17.92-16.66,21.06l17.5,29.65h-16.97l-16.14-28.5
			h-6.92v28.5h-14.67V69.98H441.7z M441.17,82.13h-12.26v21.48h12.26c8.17,0,11.84-4.3,11.84-10.9
			C453.01,86.22,449.34,82.13,441.17,82.13z"/>
		<path class="st3" d="M470.62,144.07H451.4l-16.14-28.5h-5.4v28.5h-16.59V69.02h28.41c16.62,0,27.36,9.18,27.36,23.38
			c0,10.45-6.02,18.45-16.16,21.64L470.62,144.07z M452.52,142.15h14.73l-17.29-29.29l1.22-0.33c9.99-2.68,15.95-10.2,15.95-20.13
			c0-13.04-9.99-21.46-25.44-21.46H415.2v71.22h12.75v-28.5h8.43L452.52,142.15z M441.17,104.57h-13.22v-23.4h13.22
			c8.25,0,12.8,4.1,12.8,11.54C453.97,100.36,449.43,104.57,441.17,104.57z M429.87,102.65h11.3c7.12,0,10.88-3.44,10.88-9.94
			c0-6.39-3.66-9.62-10.88-9.62h-11.3V102.65z"/>
	</g>
	<g>
		<path class="st3" d="M523.84,81.82h-27.77v18.34h24.62v11.63h-24.62v19.38h27.77v11.94H481.4V69.87h42.44V81.82z"/>
		<path class="st3" d="M524.8,144.07h-44.36V68.91h44.36v13.86h-27.77v16.42h24.62v13.55h-24.62v17.46h27.77V144.07z M482.36,142.15
			h40.52v-10.03h-27.77v-21.3h24.62v-9.71h-24.62V80.86h27.77V70.83h-40.52V142.15z"/>
	</g>
	<g>
		<path class="st3" d="M599.7,69.87v73.24h-14.67l-33.22-50.19v50.19h-14.67V69.87h14.67l33.22,50.29V69.87H599.7z"/>
		<path class="st3" d="M600.66,144.07h-16.14l-31.74-47.96v47.96h-16.59V68.91h16.14l0.28,0.43l31.45,47.63V68.91h16.59V144.07z
			 M585.54,142.15h13.19V70.83h-12.75v52.53L551.3,70.83H538.1v71.32h12.75V89.74L585.54,142.15z"/>
	</g>
	<g>
		<path class="st3" d="M656.59,81.82h-27.77v18.34h24.62v11.63h-24.62v19.38h27.77v11.94h-42.44V69.87h42.44V81.82z"/>
		<path class="st3" d="M657.55,144.07h-44.36V68.91h44.36v13.86h-27.77v16.42h24.62v13.55h-24.62v17.46h27.77V144.07z
			 M615.11,142.15h40.52v-10.03h-27.77v-21.3h24.62v-9.71h-24.62V80.86h27.77V70.83h-40.52V142.15z"/>
	</g>
	<g>
		<path class="st3" d="M669.68,69.98h14.67v45.26c0,10.06,5.45,15.3,14.77,15.3c9.43,0,14.88-5.24,14.88-15.3V69.98h14.77v45.16
			c0,19.28-13.83,28.71-29.86,28.71c-16.03,0-29.23-9.43-29.23-28.71V69.98z"/>
		<path class="st3" d="M698.92,144.81c-18.34,0-30.19-11.65-30.19-29.67V69.02h16.59v46.22c0,9.38,4.78,14.34,13.81,14.34
			c9.11,0,13.92-4.96,13.92-14.34V69.02h16.69v46.12c0,9.31-3.2,17.03-9.25,22.31C715.05,142.19,707.39,144.81,698.92,144.81z
			 M670.64,70.94v44.2c0,20.46,14.61,27.75,28.27,27.75c13.33,0,28.9-7.27,28.9-27.75v-44.2h-12.85v44.31
			c0,10.33-5.77,16.26-15.84,16.26c-10,0-15.73-5.93-15.73-16.26V70.94H670.64z"/>
	</g>
	<g>
		<path class="st3" d="M770.37,69.98c17.6,0,26.4,10.16,26.4,22.42c0,8.91-4.92,17.92-16.66,21.06l17.5,29.65h-16.97l-16.14-28.5
			h-6.92v28.5h-14.67V69.98H770.37z M769.85,82.13h-12.26v21.48h12.26c8.17,0,11.84-4.3,11.84-10.9
			C781.69,86.22,778.02,82.13,769.85,82.13z"/>
		<path class="st3" d="M799.3,144.07h-19.21l-16.14-28.5h-5.4v28.5h-16.59V69.02h28.41c16.62,0,27.36,9.18,27.36,23.38
			c0,10.45-6.02,18.45-16.16,21.64L799.3,144.07z M781.2,142.15h14.73l-17.29-29.29l1.22-0.33c9.99-2.68,15.95-10.2,15.95-20.13
			c0-13.04-9.99-21.46-25.44-21.46h-26.49v71.22h12.75v-28.5h8.43L781.2,142.15z M769.85,104.57h-13.22v-23.4h13.22
			c8.25,0,12.8,4.1,12.8,11.54C782.65,100.36,778.1,104.57,769.85,104.57z M758.55,102.65h11.3c7.12,0,10.88-3.44,10.88-9.94
			c0-6.39-3.66-9.62-10.88-9.62h-11.3V102.65z"/>
	</g>
</g>
<rect x="271.62" y="158.92" class="st1" width="525.99" height="6.05"/>
<g id="XMLID_00000094594879920944033640000004975319281629341591_">
	<circle class="st2" cx="249.09" cy="35.13" r="31.35"/>
</g>
<g id="XMLID_00000084525565813878980950000013090144797041002417_">
	<g>
		<path class="st4" d="M210.16,36c0.07,1.06-0.95,1.91-0.95,1.91c-0.1,0.12-0.21,0.23-0.33,0.36c-0.49,0.51-1.14,1.08-1.91,1.68
			c-0.14,0.11-0.28,0.22-0.43,0.34c-0.12,0.1-0.26,0.19-0.39,0.29c-0.25,0.19-0.49,0.36-0.75,0.54c-0.34,0.24-0.69,0.5-1.07,0.72
			c-0.25,0.18-0.49,0.33-0.74,0.49c-1.35,0.87-2.86,1.73-4.46,2.57c-0.76,0.41-1.56,0.8-2.37,1.18l-0.85,0.39l-0.26,0.13
			c-0.09,0.03-0.15,0.07-0.23,0.1c-0.38,0.17-0.75,0.32-1.12,0.48c-0.55,0.23-1.11,0.44-1.68,0.66c-0.33,0.13-0.67,0.25-1,0.37
			c-0.33,0.12-0.66,0.23-0.99,0.35c-0.67,0.23-1.33,0.43-2,0.6c-0.33,0.09-0.66,0.17-0.99,0.26c-0.32,0.08-0.65,0.17-0.97,0.23
			c-0.09,0.04-0.18,0.05-0.25,0.06c-0.49,0.11-0.96,0.2-1.45,0.27c-0.35,0.06-0.71,0.1-1.06,0.14c-0.34,0.04-0.66,0.08-0.98,0.1
			l-0.06,0c-0.8,0.05-1.59,0.07-2.37,0.07c-0.22,0.2-0.44,0.42-0.65,0.61c-0.22,0.2-0.46,0.41-0.69,0.59
			c-0.15,0.12-0.3,0.25-0.45,0.38c-0.22,0.16-0.45,0.34-0.69,0.52c-0.26,0.21-0.55,0.4-0.84,0.57c-0.09,0.07-0.19,0.13-0.28,0.18
			c-0.23,0.16-0.46,0.29-0.68,0.42c-0.31,0.18-0.62,0.35-0.93,0.51c-0.63,0.33-1.29,0.63-1.95,0.89c-2.05,0.82-4.24,1.33-6.48,1.48
			c-0.64,0.04-1.29,0.06-1.94,0.04c-0.75-0.02-1.49-0.08-2.24-0.18l-5.13-0.64l7.23-9.74l-0.02-0.49c-1.33-1.16-2.31-2.48-2.83-3.9
			c-0.22-0.61-0.35-1.25-0.4-1.89c-0.01-0.12-0.01-0.23,0-0.35c-0.02-0.11-0.04-0.23-0.04-0.34c-0.08-1.17,0.15-2.33,0.64-3.45
			c0.4-0.94,1.02-1.86,1.78-2.72l-0.03-0.49l-8.48-8.68l5.01-1.34c0.5-0.13,1-0.25,1.5-0.35c0.25-0.05,0.49-0.09,0.76-0.13
			c0.49-0.07,1.01-0.13,1.5-0.18l0.31-0.02c0.28-0.02,0.55-0.04,0.82-0.05c0.38-0.01,0.76-0.01,1.14,0
			c4.46,0.09,8.82,1.6,12.42,4.31c0.74-0.1,1.48-0.18,2.23-0.23l0.14-0.01c0.68-0.05,1.39-0.06,2.13-0.05l0.01,0
			c0.16,0.01,0.32,0.01,0.48,0.03c0.15,0,0.3,0.02,0.47,0.02c0.16,0.01,0.32,0.02,0.49,0.03c0.16,0.01,0.32,0.03,0.48,0.05
			c0.28,0.01,0.56,0.05,0.84,0.07l0.03,0.01c0.23,0.02,0.47,0.06,0.71,0.08c0.27,0.04,0.55,0.08,0.83,0.13
			c0.61,0.09,1.25,0.19,1.87,0.32c0.29,0.06,0.6,0.12,0.89,0.19c0.3,0.06,0.61,0.13,0.91,0.2c0.62,0.15,1.21,0.3,1.81,0.46
			c0.61,0.16,1.21,0.34,1.8,0.51c1.48,0.45,2.94,0.96,4.32,1.49c0.55,0.21,1.09,0.43,1.62,0.66c0.39,0.16,0.77,0.33,1.15,0.49
			s0.75,0.34,1.1,0.5c0.01,0,0.01,0,0.01,0c0.35,0.18,0.7,0.34,1.04,0.51c1.68,0.84,3.09,1.67,4.09,2.42c0,0,0.43,0.3,0.88,0.72
			c0,0.02,0.02,0.04,0.04,0.05C209.66,34.91,210.12,35.49,210.16,36z"/>
	</g>
</g>
<path class="st3" d="M223.73,112.8c-5.74,15.01-18.48,26.9-34.55,31.05c-13.04,3.37-26.62,1.45-38.26-5.41
	c-11.63-6.86-19.89-17.81-23.26-30.85c-6.31-24.44,6.88-50.2,30.14-59.5c-3-2.8-3.5-5.47-3.83-9.48c-0.18-2.2,0.58-5.51,2.05-7.69
	l-1.93,0.68c-32.54,11.51-51.27,46.72-42.63,80.17c2.27,8.77,6.19,16.84,11.66,23.99c5.28,6.9,11.78,12.65,19.3,17.08
	c7.52,4.44,15.7,7.33,24.29,8.62c3.27,0.49,6.58,0.73,9.86,0.73c5.62,0,11.27-0.72,16.78-2.15c7.67-1.98,14.84-5.25,21.31-9.72
	c6.25-4.31,11.7-9.63,16.19-15.81c4.82-6.63,8.33-13.97,10.47-21.72H223.73z"/>
</svg>
